<svg width="341" height="68" viewBox="0 0 341 68" fill="none" xmlns="http://www.w3.org/2000/svg">
<path fill-rule="evenodd" clip-rule="evenodd" d="M57.6 67.2L53.088 55.488H27.552L23.04 67.2H0L29.376 0H51.648L69.4397 40.7L87.1357 0H109.408L81.0076 67.1625L80.9918 67.2H57.6ZM46.848 39.168L40.32 22.272L33.792 39.168H46.848Z" fill="#FECB2F"/>
<path fill-rule="evenodd" clip-rule="evenodd" d="M341 0H116.5L88 67H341V0ZM289.964 54.8218C294.066 56.9635 298.691 58.0344 303.84 58.0344C308.989 58.0344 313.614 56.9635 317.716 54.8218C321.817 52.68 325.029 49.7181 327.353 45.9359C329.677 42.1081 330.839 37.8019 330.839 33.0172C330.839 28.2325 329.677 23.949 327.353 20.1668C325.029 16.3391 321.817 13.3543 317.716 11.2126C313.614 9.07086 308.989 8 303.84 8C298.691 8 294.066 9.07086 289.964 11.2126C285.863 13.3543 282.651 16.3391 280.327 20.1668C278.003 23.949 276.841 28.2325 276.841 33.0172C276.841 37.8019 278.003 42.1081 280.327 45.9359C282.651 49.7181 285.863 52.68 289.964 54.8218ZM309.24 43.5435C307.645 44.5005 305.845 44.9789 303.84 44.9789C301.835 44.9789 300.012 44.5005 298.372 43.5435C296.777 42.541 295.501 41.1512 294.544 39.374C293.587 37.5513 293.109 35.4323 293.109 33.0172C293.109 30.602 293.587 28.5059 294.544 26.7287C295.501 24.906 296.777 23.5161 298.372 22.5592C300.012 21.5567 301.835 21.0554 303.84 21.0554C305.845 21.0554 307.645 21.5567 309.24 22.5592C310.88 23.5161 312.179 24.906 313.136 26.7287C314.093 28.5059 314.571 30.602 314.571 33.0172C314.571 35.4323 314.093 37.5513 313.136 39.374C312.179 41.1512 310.88 42.541 309.24 43.5435ZM174.06 56.9407V9.09365H157.928V26.0452H143.027V9.09365H126.896V56.9407H143.027V39.3056H157.928V56.9407H174.06ZM221.614 56.9407V44.7739H197.69V38.4854H217.922V26.8654H197.69V21.2605H220.725V9.09365H181.832V56.9407H221.614ZM248.329 44.9106H243.955V56.9407H227.824V9.09365H250.858C255.279 9.09365 259.129 9.82274 262.41 11.2809C265.691 12.7391 268.22 14.8353 269.997 17.5694C271.774 20.3035 272.663 23.4933 272.663 27.1388C272.663 30.5565 271.888 33.5412 270.339 36.0931C268.79 38.6449 266.557 40.6727 263.64 42.1765L273.688 56.9407H256.463L248.329 44.9106ZM256.395 27.1388C256.395 25.3616 255.848 23.9946 254.755 23.0376C253.661 22.0351 252.02 21.5339 249.833 21.5339H243.955V32.7438H249.833C252.02 32.7438 253.661 32.2653 254.755 31.3084C255.848 30.3058 256.395 28.916 256.395 27.1388Z" fill="#FECB2F"/>
</svg>
